<?xml version="1.0" encoding="utf-8"?>
<!-- Generator: Adobe Illustrator 26.0.1, SVG Export Plug-In . SVG Version: 6.00 Build 0)  -->
<svg version="1.1" id="Layer_1" xmlns="http://www.w3.org/2000/svg" xmlns:xlink="http://www.w3.org/1999/xlink" x="0px" y="0px"
	 viewBox="0 0 64 64" style="enable-background:new 0 0 64 64;" xml:space="preserve">
<style type="text/css">
	.st0{fill:#FFFFFF;}
	.st1{fill:#E5E5E5;}
</style>
<g id="Layer_3">
	<g>
		<g>
			<path class="st0" d="M32,63.3c-17.2,0-31.2-14-31.2-31.2S14.8,0.8,32,0.8s31.2,14,31.2,31.2S49.2,63.3,32,63.3z"/>
			<path class="st1" d="M32,1.5c16.8,0,30.5,13.7,30.5,30.5S48.8,62.5,32,62.5S1.5,48.8,1.5,32S15.2,1.5,32,1.5 M32,0
				C14.3,0,0,14.3,0,32s14.3,32,32,32s32-14.3,32-32S49.7,0,32,0L32,0z"/>
		</g>
	</g>
	<g>
		<g id="Outline_Filled_5_">
			<path id="Cat_1_" d="M38.6,50.2h-4.8h-4.8c0,0,0-2.9,0-4.8c-6.6,1.4-8.5-3.6-8.5-3.6c-1.2-2.4-2.4-3.6-2.4-3.6
				c-2.4-1.4,0-1.2,0-1.2c2.4,0,3.6,2.4,3.6,2.4c2.1,3.6,5.9,3,7.3,2.4c0-1.2,0.5-3,1.2-3.6c-5.3-0.6-9.7-3.6-9.7-9.7
				s1.2-7.3,2.4-8.5c-0.2-0.6-1.3-2.8,0-6.1c0,0,2.4,0,4.8,3.6c1.2-1.2,4.8-1.2,6.1-1.2c1.2,0,4.9,0,6.1,1.2
				c2.4-3.6,4.8-3.6,4.8-3.6c1.3,3.3,0.3,5.5,0,6.1c1.2,1.2,2.4,2.4,2.4,8.5s-4.4,9.1-9.7,9.7c0.7,0.6,1.2,2.7,1.2,3.6L38.6,50.2
				L38.6,50.2z"/>
		</g>
	</g>
</g>
</svg>
