<?xml version="1.0" encoding="utf-8"?>
<!-- Generator: Adobe Illustrator 26.0.1, SVG Export Plug-In . SVG Version: 6.00 Build 0)  -->
<svg version="1.1" id="Layer_1" xmlns="http://www.w3.org/2000/svg" xmlns:xlink="http://www.w3.org/1999/xlink" x="0px" y="0px"
	 viewBox="0 0 32 32" style="enable-background:new 0 0 32 32;" xml:space="preserve">
<style type="text/css">
	.st0{fill:#FFFFFF;}
	.st1{fill:#E5E5E5;}
</style>
<g id="Style_2">
	<g>
		<g>
			<path class="st0" d="M16,31.6c-8.6,0-15.6-7-15.6-15.6S7.4,0.4,16,0.4s15.6,7,15.6,15.6S24.6,31.6,16,31.6z"/>
			<path class="st1" d="M16,0.8c8.4,0,15.2,6.8,15.2,15.2S24.4,31.2,16,31.2S0.8,24.4,0.8,16S7.6,0.8,16,0.8 M16,0C7.2,0,0,7.2,0,16
				s7.2,16,16,16s16-7.2,16-16S24.8,0,16,0L16,0z"/>
		</g>
	</g>
</g>
<g id="comp_x5F_189-kaggle">
	<g>
		<path d="M23,26.2l-6.3-7.8l6-5.8c0.1-0.1,0.1-0.5-0.2-0.5h-3c-0.2,0-0.3,0.1-0.5,0.2l-5.7,5.8V5c0-0.2-0.1-0.3-0.3-0.3h-2.2
			c-0.2,0-0.3,0.1-0.3,0.3v21.4c0,0.2,0.1,0.3,0.3,0.3H13c0.2,0,0.3-0.1,0.3-0.3v-4.7l1.3-1.3l4.8,6.1c0.1,0.2,0.3,0.2,0.5,0.2h2.9
			c0.2,0,0.2,0,0.3-0.1L23,26.2z"/>
	</g>
</g>
</svg>
